<svg xmlns="http://www.w3.org/2000/svg" width="1254" height="1254">
<style>
.bg{fill:#F8F8F8}
.fg{fill:#1A74B8}
@media(prefers-color-scheme:dark){
.bg{fill:#191E24}
.fg{fill:#2F89B9}
}
</style>
<rect width="1254" height="1254" rx="256" class="bg"/><path class="fg" d="m648 147 54 175c-18 26-23 59-13 89q13 40 43 70l37 37q17 14 38 20 42 12 82-6l16-8 14-8 157 206-10 12c-10 16-25 49-29 67v2q-5 29-2 57c2 40-6 81-32 113l-1 2c-65 69-149 57-149 57-49-3-98 15-133 50l-215-66q-5-52 29-96 26-34 22-77-6-37-32-63l-47-49c-40-38-79-28-81-27q-32 3-53 24l-48-225c18 5 35 8 48 21q31 28 73 26 33-1 56-24l14-17q12-16 26-29c24-25 32-50 32-51 8-16 8-45 8-47q0-35-24-59l-18-33c-9-22-8-53 0-74l11-21q6-10 14-18l2-2q20-21 47-28l10-2q26-4 54 2"/><circle cx="260" cy="628" r="130" class="fg"/><circle cx="992" cy="623" r="130" class="fg"/><circle cx="615" cy="253" r="111" class="fg"/><circle cx="627" cy="1002" r="123" class="fg"/><path class="bg" d="M847 681q20 0 33 7 24 12 35 34c10 17 12 35 12 35 4 53-15 105-53 143q-27 30-64 42c-35 11-60 5-60 4q-39-8-59-36a86 86 0 0 1-3-82q15-31 41-49c31-27 36-32 55-61 17-23 34-37 63-37"/><circle cx="622" cy="628" r="95" class="bg"/><circle cx="863" cy="345" r="75" class="fg"/><circle cx="392" cy="891" r="71" class="fg"/>
</svg>
